<?xml version="1.0" encoding="utf-8"?>
<!-- Generator: Adobe Illustrator 22.1.0, SVG Export Plug-In . SVG Version: 6.00 Build 0)  -->
<svg version="1.1" id="Le_Meridien" xmlns="http://www.w3.org/2000/svg" xmlns:xlink="http://www.w3.org/1999/xlink" x="0px"
	 y="0px" viewBox="0 0 152.9 21.4" style="enable-background:new 0 0 152.9 21.4;" xml:space="preserve">
<style type="text/css">
	.st0{fill:#231F20;}
</style>
<polygon class="st0" points="139.2,20.9 139.2,7.7 152.8,21.4 152.9,1.1 150,1.1 150,14.4 136.3,0.8 136.4,20.9 "/>
<polygon class="st0" points="133.2,0.9 122.1,0.9 122.1,20.9 133.8,20.9 133.8,18.3 125.2,18.3 125.2,12.1 132.8,12.1 132.8,9.5 
	125.2,9.5 125.2,3.6 133.2,3.6 "/>
<rect x="115.1" y="1.1" class="st0" width="3.1" height="19.8"/>
<path class="st0" d="M108.4,3.6c-1-0.9-2.1-1.6-3.4-2c-1.5-0.4-3.1-0.6-4.7-0.6h-4.1v19.8h4.1c1.6,0.1,3.1-0.1,4.6-0.6
	c1.3-0.4,2.4-1,3.5-1.9c4.1-3.7,4.4-10,0.7-14.1C108.8,4.1,108.6,3.9,108.4,3.6L108.4,3.6z M106.2,16.2c-0.7,0.6-1.5,1.1-2.4,1.4
	c-1.1,0.3-2.2,0.5-3.4,0.4h-1.4V3.9h1.4c2.1-0.2,4.2,0.5,5.8,1.8c1.5,1.3,2.3,3.3,2.3,5.3C108.6,13,107.7,14.9,106.2,16.2
	L106.2,16.2z"/>
<rect x="89.4" y="1.1" class="st0" width="3.1" height="19.8"/>
<path class="st0" d="M81.4,12.3c0.9-0.4,1.7-1,2.2-1.7C84.5,9.5,85,8.2,85,6.8c0-1.7-0.7-3.3-2-4.4c-1.2-1-3.1-1.4-5.7-1.4h-3.5
	v19.8h3V13h1.6l5.5,7.9h3.5L81.4,12.3z M77.7,10.7h-0.9l0-7.2h1.1c2.7,0,4.1,1.3,4.1,3.6C81.9,9.4,80.5,10.7,77.7,10.7z"/>
<polygon class="st0" points="70.5,0.9 59.3,0.9 59.3,20.9 71,20.9 71,18.3 62.5,18.3 62.5,12.1 70,12.1 70,9.5 62.5,9.5 62.5,3.6 
	70.5,3.6 "/>
<polygon class="st0" points="37.4,20.9 38.7,9 45.6,20.9 52.4,9.1 53.7,20.9 56.6,20.9 53.9,0.6 45.6,15.4 37.3,0.7 34.5,20.9 "/>
<path class="st0" d="M14.8,11.7l0.2-0.4c1.9-3.5,3.5-7.2,6.7-9.8c1.3-1.1,4.6-1.8,4,1.6c-1,3.8-5.9,7.9-10.3,8.6L14.8,11.7z
	 M23.2,16.9c1.5,0.1,6-1.6,6-3.9c-0.2-1.2-1.7-1-2.5-0.8c-2.1,0.6-4,3-5,4.6c-0.7,1.1-1.7,1.9-2.9,2.3c-1.8,0.6-3.8,0.8-5.7,0.5
	c-1.2-0.2-1.6-0.3-3.6-0.8c2.2-1.8,3.6-4.4,5.2-6.7c4.6-0.5,8.7-3.2,11-7.2c1-1.8,1.3-4.4-1.1-4.8c-1.4-0.2-2.6,0.4-4,1.3
	C16.8,4,14.7,8,12.8,11.9c-0.8,0.1-1.7,0.1-2.5-0.1c-1.3-0.2-2.5-0.7-3.5-1.4C4.4,8.7,3.4,5.7,4.2,2.9L3.7,3.1
	C3.2,5,3.5,6.9,4.4,8.6c0.8,1.5,2.2,2.6,3.9,3.1c1.2,0.5,2.5,0.7,3.8,0.6l0.6,0l-0.3,0.6c-0.6,1.2-1.3,2.4-2,3.6
	c-0.1,0.1-0.2,0.4-0.3,0.5c-0.5,0.6-0.8,1-1.3,1.6c-2.5-0.7-5.5-1.1-7.3-0.4c0,0-1.2,0.4-1.3,1.4c-0.1,1.4,2.1,1.7,2.1,1.7
	c2.2,0.4,4.3-0.4,6.5-1.9c2.1,0.7,4.7,2.4,7.3,2c0.6-0.1,1.2-0.2,1.8-0.5c0.5-0.2,0.9-0.5,1.3-0.8c0.9-0.7,1.6-1.6,2.3-2.5
	c-0.3,0.7-0.3,1.5-0.1,2.2c0.2,0.7,0.7,1.2,1.4,1.3c2.8,0.6,4.9-1.5,6.5-3.6l-0.3,0c-0.9,1.3-3.3,3.9-5.7,3.3
	C21.7,20,22.6,18,23.2,16.9L23.2,16.9z M23.4,16.5c0.7-1.2,2-3.3,3.8-4.1c0.4-0.3,1-0.1,1.3,0.3c0,0,0,0,0,0.1
	c0.1,0.4,0.2,0.8-0.6,1.7C26.6,15.5,25,16.3,23.4,16.5z M7.3,19.5c-0.8,0.5-3.1,1.6-4.9,1.3c0,0-2-0.2-2.1-1.1
	c-0.1-1.1,1-1.4,1.8-1.5c2-0.2,4.1,0.1,6,0.8L8,19.1C8,19.1,7.3,19.5,7.3,19.5z"/>
</svg>
